<mxfile host="Electron" modified="2023-04-26T00:51:30.364Z" agent="Mozilla/5.0 (Windows NT 10.0; Win64; x64) AppleWebKit/537.36 (KHTML, like Gecko) draw.io/21.1.2 Chrome/106.0.5249.199 Electron/21.4.3 Safari/537.36" etag="csSQagAMvZqmrHFV9OqX" version="21.1.2" type="device">
  <diagram name="Page-1" id="e3a06f82-3646-2815-327d-82caf3d4e204">
    <mxGraphModel dx="1733" dy="1102" grid="1" gridSize="10" guides="1" tooltips="1" connect="1" arrows="1" fold="1" page="1" pageScale="1.5" pageWidth="1169" pageHeight="826" background="none" math="0" shadow="0">
      <root>
        <mxCell id="0" style=";html=1;" />
        <mxCell id="1" style=";html=1;" parent="0" />
        <mxCell id="6a7d8f32e03d9370-60" value="&lt;font style=&quot;font-size: 22px;&quot;&gt;&lt;b&gt;DMZ ZONE&amp;nbsp; &amp;nbsp; &amp;nbsp;&lt;/b&gt;&lt;/font&gt;" style="whiteSpace=wrap;html=1;fillColor=#d5e8d4;fontSize=14;strokeColor=none;verticalAlign=top;" parent="1" vertex="1">
          <mxGeometry x="792" y="680" width="470" height="424" as="geometry" />
        </mxCell>
        <mxCell id="6a7d8f32e03d9370-57" value="&lt;b&gt;&lt;font style=&quot;font-size: 20px;&quot;&gt;LAN ZONE&lt;/font&gt;&lt;/b&gt;" style="whiteSpace=wrap;html=1;fillColor=#FFD470;gradientColor=none;fontSize=14;strokeColor=none;verticalAlign=top;" parent="1" vertex="1">
          <mxGeometry x="77" y="536" width="621" height="584" as="geometry" />
        </mxCell>
        <mxCell id="6a7d8f32e03d9370-2" value="&lt;b&gt;&lt;font style=&quot;font-size: 20px;&quot;&gt;Employee&lt;/font&gt;&lt;/b&gt;" style="verticalLabelPosition=bottom;aspect=fixed;html=1;verticalAlign=top;strokeColor=none;shape=mxgraph.citrix.laptop_2;fillColor=#66B2FF;gradientColor=#0066CC;fontSize=14;" parent="1" vertex="1">
          <mxGeometry x="559.9999999999999" y="690" width="116" height="86.5" as="geometry" />
        </mxCell>
        <mxCell id="6a7d8f32e03d9370-3" value="&lt;b&gt;&lt;font style=&quot;font-size: 20px;&quot;&gt;PAy roll administatrator&lt;/font&gt;&lt;/b&gt;" style="verticalLabelPosition=bottom;aspect=fixed;html=1;verticalAlign=top;strokeColor=none;shape=mxgraph.citrix.desktop;fillColor=#66B2FF;gradientColor=#0066CC;fontSize=14;" parent="1" vertex="1">
          <mxGeometry x="229.99999999999994" y="880" width="89" height="98" as="geometry" />
        </mxCell>
        <mxCell id="6a7d8f32e03d9370-4" value="&lt;font size=&quot;1&quot; style=&quot;&quot;&gt;&lt;b style=&quot;font-size: 20px;&quot;&gt;Tax Authority&lt;/b&gt;&lt;/font&gt;" style="verticalLabelPosition=bottom;aspect=fixed;html=1;verticalAlign=top;strokeColor=none;shape=mxgraph.citrix.desktop;fillColor=#66B2FF;gradientColor=#0066CC;fontSize=14;" parent="1" vertex="1">
          <mxGeometry x="1173" y="160.00000000000006" width="89" height="98" as="geometry" />
        </mxCell>
        <mxCell id="6a7d8f32e03d9370-32" style="edgeStyle=none;rounded=0;html=1;startSize=10;endSize=10;jettySize=auto;orthogonalLoop=1;fontSize=14;endArrow=none;endFill=0;strokeWidth=2;exitX=0.673;exitY=0.436;exitDx=0;exitDy=0;exitPerimeter=0;entryX=0.075;entryY=0.741;entryDx=0;entryDy=0;entryPerimeter=0;" parent="1" source="6a7d8f32e03d9370-5" target="_6gkhBl12irOjyIc25VW-24" edge="1">
          <mxGeometry relative="1" as="geometry">
            <mxPoint x="530" y="535.1441489873205" as="targetPoint" />
          </mxGeometry>
        </mxCell>
        <mxCell id="6a7d8f32e03d9370-5" value="&lt;font size=&quot;1&quot; style=&quot;&quot;&gt;&lt;b style=&quot;font-size: 20px;&quot;&gt;HR DEPARTMENT&lt;/b&gt;&lt;/font&gt;" style="verticalLabelPosition=bottom;aspect=fixed;html=1;verticalAlign=top;strokeColor=none;shape=mxgraph.citrix.desktop;fillColor=#66B2FF;gradientColor=#0066CC;fontSize=14;" parent="1" vertex="1">
          <mxGeometry x="244.00000000000006" y="651" width="89" height="98" as="geometry" />
        </mxCell>
        <mxCell id="6a7d8f32e03d9370-43" style="edgeStyle=none;rounded=0;html=1;startSize=10;endSize=10;jettySize=auto;orthogonalLoop=1;fontSize=14;endArrow=none;endFill=0;strokeWidth=2;exitX=0.883;exitY=0.457;exitDx=0;exitDy=0;exitPerimeter=0;entryX=-0.002;entryY=0.787;entryDx=0;entryDy=0;entryPerimeter=0;" parent="1" source="_6gkhBl12irOjyIc25VW-24" target="6a7d8f32e03d9370-17" edge="1">
          <mxGeometry relative="1" as="geometry">
            <mxPoint x="595.6639999999998" y="492.97799999999984" as="sourcePoint" />
          </mxGeometry>
        </mxCell>
        <mxCell id="6a7d8f32e03d9370-50" style="edgeStyle=none;rounded=0;html=1;startSize=10;endSize=10;jettySize=auto;orthogonalLoop=1;fontSize=14;endArrow=none;endFill=0;strokeWidth=2;entryX=0.225;entryY=0.113;entryDx=0;entryDy=0;entryPerimeter=0;" parent="1" source="6a7d8f32e03d9370-13" target="6a7d8f32e03d9370-16" edge="1">
          <mxGeometry relative="1" as="geometry" />
        </mxCell>
        <mxCell id="6a7d8f32e03d9370-13" value="" style="verticalLabelPosition=bottom;aspect=fixed;html=1;verticalAlign=top;strokeColor=none;shape=mxgraph.citrix.router;fillColor=#66B2FF;gradientColor=#0066CC;fontSize=14;" parent="1" vertex="1">
          <mxGeometry x="1010" y="503.47" width="55" height="36.5" as="geometry" />
        </mxCell>
        <mxCell id="6a7d8f32e03d9370-16" value="&lt;font style=&quot;font-size: 18px;&quot;&gt;&lt;b&gt;DATABASE&lt;/b&gt;&lt;/font&gt;" style="verticalLabelPosition=bottom;aspect=fixed;html=1;verticalAlign=top;strokeColor=none;shape=mxgraph.citrix.chassis;fillColor=#66B2FF;gradientColor=#0066CC;fontSize=14;" parent="1" vertex="1">
          <mxGeometry x="1070" y="759" width="137.5" height="177.5" as="geometry" />
        </mxCell>
        <mxCell id="6a7d8f32e03d9370-44" style="edgeStyle=none;rounded=0;html=1;startSize=10;endSize=10;jettySize=auto;orthogonalLoop=1;fontSize=14;endArrow=none;endFill=0;strokeWidth=2;" parent="1" target="6a7d8f32e03d9370-13" edge="1">
          <mxGeometry relative="1" as="geometry">
            <mxPoint x="820" y="440" as="sourcePoint" />
          </mxGeometry>
        </mxCell>
        <mxCell id="6a7d8f32e03d9370-17" value="&lt;b&gt;&lt;font style=&quot;font-size: 20px;&quot;&gt;Firewall&lt;/font&gt;&lt;/b&gt;" style="verticalLabelPosition=bottom;aspect=fixed;html=1;verticalAlign=top;strokeColor=none;shape=mxgraph.citrix.firewall;fillColor=#66B2FF;gradientColor=#0066CC;fontSize=14;" parent="1" vertex="1">
          <mxGeometry x="802" y="420" width="75" height="93" as="geometry" />
        </mxCell>
        <mxCell id="6a7d8f32e03d9370-49" style="edgeStyle=none;rounded=0;html=1;startSize=10;endSize=10;jettySize=auto;orthogonalLoop=1;fontSize=14;endArrow=none;endFill=0;strokeWidth=2;" parent="1" source="6a7d8f32e03d9370-30" target="6a7d8f32e03d9370-13" edge="1">
          <mxGeometry relative="1" as="geometry" />
        </mxCell>
        <mxCell id="6a7d8f32e03d9370-30" value="&lt;font style=&quot;font-size: 20px;&quot;&gt;&lt;b&gt;WEB SERVER&lt;/b&gt;&lt;/font&gt;" style="verticalLabelPosition=bottom;aspect=fixed;html=1;verticalAlign=top;strokeColor=none;shape=mxgraph.citrix.web_service;fillColor=#66B2FF;gradientColor=#0066CC;fontSize=14;" parent="1" vertex="1">
          <mxGeometry x="840" y="770" width="63" height="60" as="geometry" />
        </mxCell>
        <mxCell id="_6gkhBl12irOjyIc25VW-2" style="edgeStyle=none;rounded=0;html=1;startSize=10;endSize=10;jettySize=auto;orthogonalLoop=1;fontSize=14;endArrow=none;endFill=0;strokeWidth=2;exitX=0.964;exitY=0.85;exitDx=0;exitDy=0;exitPerimeter=0;entryX=0.613;entryY=0.782;entryDx=0;entryDy=0;entryPerimeter=0;" edge="1" parent="1" source="6a7d8f32e03d9370-2" target="_6gkhBl12irOjyIc25VW-24">
          <mxGeometry relative="1" as="geometry">
            <mxPoint x="402" y="853" as="sourcePoint" />
            <mxPoint x="551.2799999999997" y="534.452" as="targetPoint" />
          </mxGeometry>
        </mxCell>
        <mxCell id="_6gkhBl12irOjyIc25VW-3" style="edgeStyle=none;rounded=0;html=1;startSize=10;endSize=10;jettySize=auto;orthogonalLoop=1;fontSize=14;endArrow=none;endFill=0;strokeWidth=2;entryX=0.344;entryY=0.701;entryDx=0;entryDy=0;entryPerimeter=0;exitX=0.712;exitY=0.361;exitDx=0;exitDy=0;exitPerimeter=0;" edge="1" parent="1" source="6a7d8f32e03d9370-3" target="_6gkhBl12irOjyIc25VW-24">
          <mxGeometry relative="1" as="geometry">
            <mxPoint x="416" y="984" as="sourcePoint" />
            <mxPoint x="540.0319999999997" y="527.51" as="targetPoint" />
          </mxGeometry>
        </mxCell>
        <mxCell id="_6gkhBl12irOjyIc25VW-7" value="" style="verticalLabelPosition=bottom;sketch=0;aspect=fixed;html=1;verticalAlign=top;strokeColor=none;align=center;outlineConnect=0;shape=mxgraph.citrix.cloud;" vertex="1" parent="1">
          <mxGeometry x="755.5" y="150" width="214" height="139.66" as="geometry" />
        </mxCell>
        <mxCell id="_6gkhBl12irOjyIc25VW-9" style="edgeStyle=none;rounded=0;html=1;startSize=10;endSize=10;jettySize=auto;orthogonalLoop=1;fontSize=14;endArrow=none;endFill=0;strokeWidth=2;exitX=0.069;exitY=0.615;exitDx=0;exitDy=0;exitPerimeter=0;" edge="1" parent="1" source="6a7d8f32e03d9370-4" target="_6gkhBl12irOjyIc25VW-7">
          <mxGeometry relative="1" as="geometry">
            <mxPoint x="1425.5" y="280" as="sourcePoint" />
            <mxPoint x="988.5" y="297" as="targetPoint" />
          </mxGeometry>
        </mxCell>
        <mxCell id="_6gkhBl12irOjyIc25VW-15" value="&lt;b style=&quot;border-color: var(--border-color); font-size: 20px;&quot;&gt;WAN&lt;/b&gt;" style="edgeLabel;html=1;align=center;verticalAlign=middle;resizable=0;points=[];" vertex="1" connectable="0" parent="1">
          <mxGeometry x="969.4956263922791" y="430.00483381776485" as="geometry">
            <mxPoint x="84" y="-209" as="offset" />
          </mxGeometry>
        </mxCell>
        <mxCell id="_6gkhBl12irOjyIc25VW-17" value="&lt;span style=&quot;font-size: 20px;&quot;&gt;&lt;b&gt;DMZ&lt;/b&gt;&lt;/span&gt;" style="edgeLabel;html=1;align=center;verticalAlign=middle;resizable=0;points=[];" vertex="1" connectable="0" parent="1">
          <mxGeometry x="849.9956263922791" y="690.0048338177648" as="geometry">
            <mxPoint x="84" y="-209" as="offset" />
          </mxGeometry>
        </mxCell>
        <mxCell id="_6gkhBl12irOjyIc25VW-18" value="&lt;span style=&quot;font-size: 20px;&quot;&gt;&lt;b&gt;LAN&lt;/b&gt;&lt;/span&gt;" style="edgeLabel;html=1;align=center;verticalAlign=middle;resizable=0;points=[];" vertex="1" connectable="0" parent="1">
          <mxGeometry x="599.9956263922791" y="700.0048338177648" as="geometry">
            <mxPoint x="84" y="-209" as="offset" />
          </mxGeometry>
        </mxCell>
        <mxCell id="_6gkhBl12irOjyIc25VW-20" value="&lt;font size=&quot;1&quot; style=&quot;&quot;&gt;&lt;b style=&quot;font-size: 20px;&quot;&gt;Remote User&lt;/b&gt;&lt;/font&gt;" style="verticalLabelPosition=bottom;aspect=fixed;html=1;verticalAlign=top;strokeColor=none;shape=mxgraph.citrix.desktop;fillColor=#66B2FF;gradientColor=#0066CC;fontSize=14;" vertex="1" parent="1">
          <mxGeometry x="348.50000000000006" y="170.83000000000004" width="89" height="98" as="geometry" />
        </mxCell>
        <mxCell id="_6gkhBl12irOjyIc25VW-21" style="edgeStyle=none;rounded=0;html=1;startSize=10;endSize=10;jettySize=auto;orthogonalLoop=1;fontSize=14;endArrow=none;endFill=0;strokeWidth=2;" edge="1" parent="1" source="_6gkhBl12irOjyIc25VW-20">
          <mxGeometry relative="1" as="geometry">
            <mxPoint x="1189.5" y="230" as="sourcePoint" />
            <mxPoint x="755.5" y="220" as="targetPoint" />
          </mxGeometry>
        </mxCell>
        <mxCell id="_6gkhBl12irOjyIc25VW-22" value="&lt;span style=&quot;font-size: 20px;&quot;&gt;&lt;b&gt;WAN&lt;/b&gt;&lt;/span&gt;" style="edgeLabel;html=1;align=center;verticalAlign=middle;resizable=0;points=[];" vertex="1" connectable="0" parent="1">
          <mxGeometry x="469.99562639227906" y="430.00483381776485" as="geometry">
            <mxPoint x="84" y="-209" as="offset" />
          </mxGeometry>
        </mxCell>
        <mxCell id="_6gkhBl12irOjyIc25VW-24" value="" style="verticalLabelPosition=bottom;aspect=fixed;html=1;verticalAlign=top;strokeColor=none;shape=mxgraph.citrix.router;fillColor=#66B2FF;gradientColor=#0066CC;fontSize=14;" vertex="1" parent="1">
          <mxGeometry x="524" y="476.5" width="55" height="36.5" as="geometry" />
        </mxCell>
        <mxCell id="_6gkhBl12irOjyIc25VW-26" value="" style="edgeStyle=none;rounded=0;html=1;startSize=10;endSize=10;jettySize=auto;orthogonalLoop=1;fontSize=14;endArrow=none;endFill=0;strokeWidth=2;exitX=0.669;exitY=0.213;exitDx=0;exitDy=0;exitPerimeter=0;" edge="1" parent="1" source="6a7d8f32e03d9370-17" target="_6gkhBl12irOjyIc25VW-25">
          <mxGeometry relative="1" as="geometry">
            <mxPoint x="852" y="440" as="sourcePoint" />
            <mxPoint x="856" y="210" as="targetPoint" />
          </mxGeometry>
        </mxCell>
        <mxCell id="_6gkhBl12irOjyIc25VW-25" value="" style="verticalLabelPosition=bottom;aspect=fixed;html=1;verticalAlign=top;strokeColor=none;shape=mxgraph.citrix.router;fillColor=#66B2FF;gradientColor=#0066CC;fontSize=14;" vertex="1" parent="1">
          <mxGeometry x="829.5" y="331.75" width="55" height="36.5" as="geometry" />
        </mxCell>
        <mxCell id="_6gkhBl12irOjyIc25VW-27" value="&lt;b style=&quot;border-color: var(--border-color); color: rgb(0, 0, 0); font-family: Helvetica; font-style: normal; font-variant-ligatures: normal; font-variant-caps: normal; letter-spacing: normal; orphans: 2; text-align: center; text-indent: 0px; text-transform: none; widows: 2; word-spacing: 0px; -webkit-text-stroke-width: 0px; text-decoration-thickness: initial; text-decoration-style: initial; text-decoration-color: initial; font-size: 20px;&quot;&gt;INTERNET&lt;/b&gt;" style="text;whiteSpace=wrap;html=1;" vertex="1" parent="1">
          <mxGeometry x="827.5" y="194.83" width="70" height="50" as="geometry" />
        </mxCell>
        <mxCell id="_6gkhBl12irOjyIc25VW-29" value="" style="endArrow=none;html=1;rounded=0;" edge="1" parent="1" target="_6gkhBl12irOjyIc25VW-7">
          <mxGeometry width="50" height="50" relative="1" as="geometry">
            <mxPoint x="860" y="330" as="sourcePoint" />
            <mxPoint x="900" y="430" as="targetPoint" />
          </mxGeometry>
        </mxCell>
        <mxCell id="_6gkhBl12irOjyIc25VW-30" value="&lt;span style=&quot;font-size: 20px;&quot;&gt;&lt;b&gt;WINDOWS AD SERVER&lt;/b&gt;&lt;/span&gt;" style="verticalLabelPosition=bottom;aspect=fixed;html=1;verticalAlign=top;strokeColor=none;shape=mxgraph.citrix.desktop;fillColor=#66B2FF;gradientColor=#0066CC;fontSize=14;" vertex="1" parent="1">
          <mxGeometry x="460.00000000000006" y="850" width="89" height="98" as="geometry" />
        </mxCell>
        <mxCell id="_6gkhBl12irOjyIc25VW-31" style="edgeStyle=none;rounded=0;html=1;startSize=10;endSize=10;jettySize=auto;orthogonalLoop=1;fontSize=14;endArrow=none;endFill=0;strokeWidth=2;exitX=0.495;exitY=0.104;exitDx=0;exitDy=0;exitPerimeter=0;" edge="1" parent="1" source="_6gkhBl12irOjyIc25VW-30">
          <mxGeometry relative="1" as="geometry">
            <mxPoint x="303" y="925" as="sourcePoint" />
            <mxPoint x="550" y="512" as="targetPoint" />
          </mxGeometry>
        </mxCell>
      </root>
    </mxGraphModel>
  </diagram>
</mxfile>
